<mxfile host="app.diagrams.net" modified="2024-03-16T15:41:03.407Z" agent="Mozilla/5.0 (Windows NT 10.0; Win64; x64) AppleWebKit/537.36 (KHTML, like Gecko) Chrome/122.0.0.0 Safari/537.36" etag="v4zGBLQh0t6h-UebtNjT" version="24.0.6" type="device">
  <diagram name="Page-1" id="5YjzIczs2EmaYv3rfKZi">
    <mxGraphModel dx="740" dy="1513" grid="1" gridSize="10" guides="1" tooltips="1" connect="1" arrows="1" fold="1" page="1" pageScale="1" pageWidth="827" pageHeight="1169" math="0" shadow="0">
      <root>
        <mxCell id="0" />
        <mxCell id="1" parent="0" />
        <mxCell id="h-g6llxoDv6lBoZENlql-2" value="Course" style="swimlane;fontStyle=1;align=center;verticalAlign=top;childLayout=stackLayout;horizontal=1;startSize=26;horizontalStack=0;resizeParent=1;resizeParentMax=0;resizeLast=0;collapsible=1;marginBottom=0;whiteSpace=wrap;html=1;" vertex="1" parent="1">
          <mxGeometry x="100" y="-130" width="240" height="260" as="geometry">
            <mxRectangle x="174" y="340" width="80" height="30" as="alternateBounds" />
          </mxGeometry>
        </mxCell>
        <mxCell id="h-g6llxoDv6lBoZENlql-3" value="-name:String&lt;div&gt;&lt;div&gt;-code:String&lt;/div&gt;&lt;/div&gt;&lt;div&gt;-kind:String&lt;/div&gt;&lt;div&gt;-score:double&lt;/div&gt;&lt;div&gt;-hours:int&lt;/div&gt;&lt;div&gt;-absence:int&lt;/div&gt;&lt;div&gt;-extraCourse:boolean&lt;/div&gt;" style="text;strokeColor=none;fillColor=none;align=left;verticalAlign=top;spacingLeft=4;spacingRight=4;overflow=hidden;rotatable=0;points=[[0,0.5],[1,0.5]];portConstraint=eastwest;whiteSpace=wrap;html=1;" vertex="1" parent="h-g6llxoDv6lBoZENlql-2">
          <mxGeometry y="26" width="240" height="104" as="geometry" />
        </mxCell>
        <mxCell id="h-g6llxoDv6lBoZENlql-4" value="" style="line;strokeWidth=1;fillColor=none;align=left;verticalAlign=middle;spacingTop=-1;spacingLeft=3;spacingRight=3;rotatable=0;labelPosition=right;points=[];portConstraint=eastwest;strokeColor=inherit;" vertex="1" parent="h-g6llxoDv6lBoZENlql-2">
          <mxGeometry y="130" width="240" height="8" as="geometry" />
        </mxCell>
        <mxCell id="h-g6llxoDv6lBoZENlql-5" value="+CRUD&lt;div&gt;+whoaddCourse()ArrayList&amp;lt;Student&amp;gt;&lt;/div&gt;&lt;div&gt;+whoDeleteCourse(String code)ArrayList&amp;lt;Student&amp;gt;&lt;/div&gt;&lt;div&gt;+noassignTeach(String courseCode):ArrayList&amp;lt;Teacher&amp;gt;&lt;/div&gt;&lt;div&gt;+whoTeach(&lt;span style=&quot;background-color: initial;&quot;&gt;String courseCode)&lt;/span&gt;&lt;span style=&quot;background-color: initial;&quot;&gt;:ArrayList&amp;lt;Teacher&amp;gt;&lt;/span&gt;&lt;/div&gt;&lt;div&gt;&lt;span style=&quot;background-color: initial;&quot;&gt;&lt;br&gt;&lt;/span&gt;&lt;/div&gt;" style="text;strokeColor=none;fillColor=none;align=left;verticalAlign=top;spacingLeft=4;spacingRight=4;overflow=hidden;rotatable=0;points=[[0,0.5],[1,0.5]];portConstraint=eastwest;whiteSpace=wrap;html=1;" vertex="1" parent="h-g6llxoDv6lBoZENlql-2">
          <mxGeometry y="138" width="240" height="122" as="geometry" />
        </mxCell>
        <mxCell id="h-g6llxoDv6lBoZENlql-6" value="Teacher" style="swimlane;fontStyle=1;align=center;verticalAlign=top;childLayout=stackLayout;horizontal=1;startSize=26;horizontalStack=0;resizeParent=1;resizeParentMax=0;resizeLast=0;collapsible=1;marginBottom=0;whiteSpace=wrap;html=1;" vertex="1" parent="1">
          <mxGeometry x="350" y="-130" width="240" height="260" as="geometry">
            <mxRectangle x="174" y="340" width="80" height="30" as="alternateBounds" />
          </mxGeometry>
        </mxCell>
        <mxCell id="h-g6llxoDv6lBoZENlql-7" value="-name:String&lt;div&gt;&lt;div&gt;-ID:String&lt;/div&gt;&lt;/div&gt;&lt;div&gt;-salary:double&lt;/div&gt;&lt;div&gt;-course:Course&lt;/div&gt;" style="text;strokeColor=none;fillColor=none;align=left;verticalAlign=top;spacingLeft=4;spacingRight=4;overflow=hidden;rotatable=0;points=[[0,0.5],[1,0.5]];portConstraint=eastwest;whiteSpace=wrap;html=1;" vertex="1" parent="h-g6llxoDv6lBoZENlql-6">
          <mxGeometry y="26" width="240" height="74" as="geometry" />
        </mxCell>
        <mxCell id="h-g6llxoDv6lBoZENlql-8" value="" style="line;strokeWidth=1;fillColor=none;align=left;verticalAlign=middle;spacingTop=-1;spacingLeft=3;spacingRight=3;rotatable=0;labelPosition=right;points=[];portConstraint=eastwest;strokeColor=inherit;" vertex="1" parent="h-g6llxoDv6lBoZENlql-6">
          <mxGeometry y="100" width="240" height="8" as="geometry" />
        </mxCell>
        <mxCell id="h-g6llxoDv6lBoZENlql-9" value="+CRUD&lt;div&gt;+getTeachInPerson_Online(Course courseCode)ArrayList&amp;lt;Teacher&amp;gt;&lt;/div&gt;&lt;div&gt;+getListTeacherStudent(String courseCode)ArrayList&amp;lt;Student&amp;gt;&lt;/div&gt;&lt;div&gt;+getstudentExtracourse(String courseCode)ArrayList&amp;lt;Student&amp;gt;&lt;br&gt;&lt;/div&gt;&lt;div&gt;+assignExtraCourse(String [] studentIDS,String courseCode,String TeacherID):ArrayList&amp;lt;Student&amp;gt;&lt;/div&gt;&lt;div&gt;&lt;span style=&quot;background-color: initial;&quot;&gt;&lt;br&gt;&lt;/span&gt;&lt;/div&gt;" style="text;strokeColor=none;fillColor=none;align=left;verticalAlign=top;spacingLeft=4;spacingRight=4;overflow=hidden;rotatable=0;points=[[0,0.5],[1,0.5]];portConstraint=eastwest;whiteSpace=wrap;html=1;" vertex="1" parent="h-g6llxoDv6lBoZENlql-6">
          <mxGeometry y="108" width="240" height="152" as="geometry" />
        </mxCell>
        <mxCell id="h-g6llxoDv6lBoZENlql-10" value="Student" style="swimlane;fontStyle=1;align=center;verticalAlign=top;childLayout=stackLayout;horizontal=1;startSize=26;horizontalStack=0;resizeParent=1;resizeParentMax=0;resizeLast=0;collapsible=1;marginBottom=0;whiteSpace=wrap;html=1;" vertex="1" parent="1">
          <mxGeometry x="600" y="-130" width="240" height="260" as="geometry">
            <mxRectangle x="174" y="340" width="80" height="30" as="alternateBounds" />
          </mxGeometry>
        </mxCell>
        <mxCell id="h-g6llxoDv6lBoZENlql-11" value="-name:String&lt;div&gt;&lt;div&gt;-ID:String&lt;/div&gt;&lt;/div&gt;&lt;div&gt;-courses:Course[]&lt;/div&gt;&lt;div&gt;-codeCourse:String[]&lt;/div&gt;" style="text;strokeColor=none;fillColor=none;align=left;verticalAlign=top;spacingLeft=4;spacingRight=4;overflow=hidden;rotatable=0;points=[[0,0.5],[1,0.5]];portConstraint=eastwest;whiteSpace=wrap;html=1;" vertex="1" parent="h-g6llxoDv6lBoZENlql-10">
          <mxGeometry y="26" width="240" height="64" as="geometry" />
        </mxCell>
        <mxCell id="h-g6llxoDv6lBoZENlql-12" value="" style="line;strokeWidth=1;fillColor=none;align=left;verticalAlign=middle;spacingTop=-1;spacingLeft=3;spacingRight=3;rotatable=0;labelPosition=right;points=[];portConstraint=eastwest;strokeColor=inherit;" vertex="1" parent="h-g6llxoDv6lBoZENlql-10">
          <mxGeometry y="90" width="240" height="20" as="geometry" />
        </mxCell>
        <mxCell id="h-g6llxoDv6lBoZENlql-13" value="+CRUD&lt;div&gt;+getTopCourse(Course course)ArrayList&amp;lt;Student&amp;gt;&lt;/div&gt;&lt;div&gt;+getFaild(Course courseCode)ArrayList&amp;lt;Student&amp;gt;&lt;/div&gt;&lt;div&gt;+studyOnline_Inperson(Course courseCode)ArrayList&amp;lt;Student&amp;gt;&lt;br&gt;&lt;/div&gt;&lt;div&gt;+noabsencehurs(course Course):ArrayList&amp;lt;Student&amp;gt;&lt;/div&gt;&lt;div&gt;&lt;span style=&quot;background-color: initial;&quot;&gt;&lt;br&gt;&lt;/span&gt;&lt;/div&gt;" style="text;strokeColor=none;fillColor=none;align=left;verticalAlign=top;spacingLeft=4;spacingRight=4;overflow=hidden;rotatable=0;points=[[0,0.5],[1,0.5]];portConstraint=eastwest;whiteSpace=wrap;html=1;" vertex="1" parent="h-g6llxoDv6lBoZENlql-10">
          <mxGeometry y="110" width="240" height="150" as="geometry" />
        </mxCell>
      </root>
    </mxGraphModel>
  </diagram>
</mxfile>
